<?xml version="1.0" encoding="UTF-8"?>
<svg width="128" height="128" fill="none" version="1.2" baseProfile="tiny-ps" viewBox="0 0 128 128" xmlns="http://www.w3.org/2000/svg">
 <title>Ergo Services</title>
 <g transform="matrix(2.4227 0 0 2.4227 .10516 .69762)">
  <ellipse cx="26.374" cy="25.69" rx="24.176" ry="23.931" fill="url(#paint0_linear)"/>
  <g transform="translate(-.8022 -.24176)" filter="url(#filter0_d)">
   <path d="m27.176 48.586c12.64 0 22.886-10.143 22.886-22.655s-10.247-22.655-22.886-22.655c-12.64 0-22.886 10.143-22.886 22.655s10.247 22.655 22.886 22.655zm0 1.2763c13.352 0 24.176-10.714 24.176-23.931s-10.824-23.931-24.176-23.931c-13.352 0-24.176 10.714-24.176 23.931s10.824 23.931 24.176 23.931z" clip-rule="evenodd" fill="#fff" fill-rule="evenodd"/>
  </g>
  <g transform="translate(-.8022 -.24176)" fill="#fff" filter="url(#filter1_d)">
   <ellipse transform="matrix(1 0 0 -1 12.989 28.203)" rx="2.8976" ry="2.9102"/>
   <ellipse transform="matrix(1 0 0 -1 41.482 28.203)" rx="2.8976" ry="2.9102"/>
   <g filter="url(#filter2_i)">
    <path d="m22.648 34.508c0-1.6073-1.2973-2.9102-2.8976-2.9102s-2.8976 1.3029-2.8976 2.9102 1.2973 2.9102 2.8976 2.9102 2.8976-1.3029 2.8976-2.9102z"/>
    <path d="m22.648 22.382c0-1.6073-1.2973-2.9102-2.8976-2.9102s-2.8976 1.3029-2.8976 2.9102 1.2973 2.9103 2.8976 2.9103 2.8976-1.303 2.8976-2.9103z"/>
    <path d="m18.784 34.75h1.9317v-11.641h-1.9317z"/>
   </g>
   <path d="m37.136 34.508c0-1.6073-1.2973-2.9102-2.8976-2.9102s-2.8976 1.3029-2.8976 2.9102 1.2973 2.9102 2.8976 2.9102 2.8976-1.3029 2.8976-2.9102z"/>
   <path d="m37.136 22.382c0-1.6073-1.2973-2.9102-2.8976-2.9102s-2.8976 1.3029-2.8976 2.9102 1.2973 2.9103 2.8976 2.9103 2.8976-1.303 2.8976-2.9103z"/>
   <path d="m33.273 34.75h1.9317v-11.641h-1.9317z"/>
   <path d="m29.892 27.717c0-1.6073-1.2973-2.9103-2.8976-2.9103s-2.8976 1.303-2.8976 2.9103c0 1.6072 1.2973 2.9102 2.8976 2.9102s2.8976-1.303 2.8976-2.9102z"/>
   <path d="m29.892 15.591c0-1.6073-1.2973-2.9102-2.8976-2.9102s-2.8976 1.3029-2.8976 2.9102 1.2973 2.9102 2.8976 2.9102 2.8976-1.3029 2.8976-2.9102z"/>
   <path d="m26.028 27.96h1.9317v-11.641h-1.9317z"/>
  </g>
 </g>
 <defs>
  <filter id="filter0_d" x=".8022" y=".24176" width="52.747" height="52.258" color-interpolation-filters="sRGB" filterUnits="userSpaceOnUse">
   <feFlood flood-opacity="0" result="BackgroundImageFix"/>
   <feColorMatrix in="SourceAlpha" values="0 0 0 0 0 0 0 0 0 0 0 0 0 0 0 0 0 0 127 0"/>
   <feOffset dy="0.43956"/>
   <feGaussianBlur stdDeviation="1.0989"/>
   <feColorMatrix values="0 0 0 0 0.195833 0 0 0 0 0.195833 0 0 0 0 0.195833 0 0 0 0.1 0"/>
   <feBlend in2="BackgroundImageFix" mode="luminosity" result="effect1_dropShadow"/>
   <feBlend in="SourceGraphic" in2="effect1_dropShadow" result="shape"/>
  </filter>
  <filter id="filter1_d" x="10.091" y="12.681" width="34.288" height="25.616" color-interpolation-filters="sRGB" filterUnits="userSpaceOnUse">
   <feFlood flood-opacity="0" result="BackgroundImageFix"/>
   <feColorMatrix in="SourceAlpha" values="0 0 0 0 0 0 0 0 0 0 0 0 0 0 0 0 0 0 127 0"/>
   <feOffset dy="0.879121"/>
   <feColorMatrix values="0 0 0 0 0.121458 0 0 0 0 0.361284 0 0 0 0 0.55 0 0 0 1 0"/>
   <feBlend in2="BackgroundImageFix" result="effect1_dropShadow"/>
   <feBlend in="SourceGraphic" in2="effect1_dropShadow" result="shape"/>
  </filter>
  <filter id="filter2_i" x="16.853" y="19.472" width="5.7952" height="17.947" color-interpolation-filters="sRGB" filterUnits="userSpaceOnUse">
   <feFlood flood-opacity="0" result="BackgroundImageFix"/>
   <feBlend in="SourceGraphic" in2="BackgroundImageFix" result="shape"/>
   <feColorMatrix in="SourceAlpha" result="hardAlpha" values="0 0 0 0 0 0 0 0 0 0 0 0 0 0 0 0 0 0 127 0"/>
   <feOffset/>
   <feGaussianBlur stdDeviation="1.0989"/>
   <feComposite in2="hardAlpha" k2="-1" k3="1" operator="arithmetic"/>
   <feColorMatrix values="0 0 0 0 0.858333 0 0 0 0 0.858333 0 0 0 0 0.858333 0 0 0 0.5 0"/>
   <feBlend in2="shape" mode="luminosity" result="effect1_innerShadow"/>
  </filter>
  <linearGradient id="paint0_linear" x1="27.176" x2="27.176" y1="2" y2="49.863" gradientTransform="translate(-.8022 -.24176)" gradientUnits="userSpaceOnUse">
   <stop stop-color="#50B6F5" offset="0"/>
   <stop stop-color="#307BF1" offset="1"/>
  </linearGradient>
 </defs>
</svg>
